<svg width="81" height="70" viewBox="0 0 81 70" fill="none" xmlns="http://www.w3.org/2000/svg">
<g id="logo">
<g id="Mask group">
<mask id="mask0_122_18659" style="mask-type:alpha" maskUnits="userSpaceOnUse" x="0" y="0" width="81" height="68">
<rect id="Rectangle 2085" width="80.1871" height="67.3571" fill="#D9D9D9"/>
</mask>
<g mask="url(#mask0_122_18659)">
<g id="Group 1753">
<path id="Vector 16" d="M33.1483 27.4485L37.5889 14.5252C37.7846 13.9556 38.5866 13.9454 38.7968 14.5099L43.4145 26.9151C45.4623 32.4162 46.5109 38.2389 46.5109 44.1088V123.488H30.4734V43.4645C30.4734 38.0147 31.3773 32.6026 33.1483 27.4485Z" fill="#F6FFF8" stroke="#0C5C0F" stroke-width="0.801871"/>
<path id="Vector 17" d="M53.9861 30.3303L64.2882 21.192C64.7434 20.7882 65.4526 21.186 65.3453 21.785L62.9922 34.9229C61.9865 40.5382 60.0135 45.9362 57.1612 50.8765L17.3446 119.841L3.87838 112.066L44.0089 42.558C46.6562 37.9726 50.0252 33.8438 53.9861 30.3303Z" fill="#F6FFF8" stroke="#0C5C0F" stroke-width="0.801871"/>
<path id="Vector 18" d="M22.7598 30.2308L12.5049 21.3048C12.0448 20.9043 11.3381 21.3116 11.4539 21.9105L14.0882 35.5322C15.1279 40.9089 17.0565 46.0748 19.7947 50.8174L59.7862 120.085L73.0961 112.066L33.0843 42.7636C30.3594 38.0439 26.8706 33.8088 22.7598 30.2308Z" fill="#F6FFF8" stroke="#0C5C0F" stroke-width="0.801871"/>
</g>
</g>
</g>
<circle id="Ellipse 114" cx="38.6071" cy="35.5" r="34.0893" stroke="#0C5C0F" stroke-width="0.821429"/>
</g>
</svg>
